<svg width="54" height="54" viewBox="0 0 54 54" fill="none" xmlns="http://www.w3.org/2000/svg">
<path opacity="0.1" fill-rule="evenodd" clip-rule="evenodd" d="M54 27C54 41.9117 41.9117 54 27 54C12.0883 54 0 41.9117 0 27C0 12.0883 12.0883 0 27 0C41.9117 0 54 12.0883 54 27ZM27 51C40.2548 51 51 40.2548 51 27C51 13.7452 40.2548 3 27 3C13.7452 3 3 13.7452 3 27C3 40.2548 13.7452 51 27 51Z" fill="#283645"/>
<path d="M21.8336 33.8089C21.6463 33.9278 21.4247 33.9941 21.1963 33.9996C20.9678 34.0051 20.7426 33.9495 20.5487 33.8398C20.3548 33.7301 20.2007 33.571 20.1056 33.3824C20.0106 33.1938 19.9787 32.984 20.014 32.779V22.221C19.9787 22.016 20.0106 21.8062 20.1056 21.6176C20.2007 21.429 20.3548 21.2699 20.5487 21.1602C20.7426 21.0505 20.9678 20.9949 21.1963 21.0004C21.4247 21.0059 21.6463 21.0722 21.8336 21.1911L34.2333 26.6928C35.2556 27.1382 35.2556 27.8618 34.2333 28.3072L21.8336 33.8089Z" fill="#D22856"/>
</svg>
